<?xml version="1.0" encoding="utf-8"?>
<!-- Generator: Adobe Illustrator 27.9.0, SVG Export Plug-In . SVG Version: 6.00 Build 0)  -->
<svg version="1.1" id="Layer_1" xmlns="http://www.w3.org/2000/svg" xmlns:xlink="http://www.w3.org/1999/xlink" x="0px" y="0px"
	 viewBox="0 0 1080 321.4" style="enable-background:new 0 0 1080 321.4;" xml:space="preserve">
<style type="text/css">
	.st0{fill:#BF0000;}
</style>
<polygon class="st0" points="869.4,269.4 216,269.4 268.1,321.4 "/>
<path class="st0" d="M276.5,58.8v7.9c-12.1-7.7-23-12.2-37.9-12.2c-45.8,0-80.5,41.7-80.5,93s34.8,93,80.5,93
	c14.9,0,25.8-4.5,37.9-12.2v7.9h40.2V58.8H276.5z M238.6,197.8c-22.6,0-39.1-22.2-39.1-50.3s16.5-50.3,39.1-50.3
	s38.5,22.2,38.5,50.3S261.2,197.8,238.6,197.8"/>
<path class="st0" d="M598.9,58.8V163c0,19.5-13.4,36-33,36c-19.5,0-33-16.5-33-36V58.8h-40.2V163c0,42.7,29.2,77.5,72,77.5
	c19.8,0,34.2-10.9,34.2-10.9v6.6h40.2V58.8H598.9z"/>
<path class="st0" d="M973.8,236.1V132c0-19.5,13.4-36,33-36c19.5,0,33,16.5,33,36v104.2h40.2V132c0-42.7-29.2-77.5-72-77.5
	c-19.8,0-34.2,10.9-34.2,10.9v-6.6h-40.2v177.3H973.8z"/>
<path class="st0" d="M42.1,236.1v-68.7h29.8l51.5,68.7h52.7l-62.3-82.9C133.2,139.3,146,116.6,146,91c0-42.1-34.3-76.4-76.4-76.4H0
	v221.5H42.1z M42.1,56.7h27.5C88.5,56.7,104,72.1,104,91c0,19-15.4,34.3-34.4,34.3H42.1V56.7z"/>
<path class="st0" d="M747.6,194.2c-3.6,2.4-8.2,4.4-13.5,4.4c-6.6,0-19-5-19-21.7V101h34.4V58.8h-34.4V14.6h-40.2v44.2h-21.3v42.1
	h21.3v76.5c0,39.6,29.8,63.2,59.8,63.2c11.2,0,26.7-3.7,39.4-11.2L747.6,194.2z"/>
<polygon class="st0" points="416.8,141.9 485.8,58.8 429.4,58.8 381.1,120.6 381.1,0 339.7,0 339.7,236.1 381.1,236.1 381.1,163.3 
	440.5,236.1 496.9,236.1 "/>
<path class="st0" d="M840.5,54.3c-46.6,0-80,40.9-80,93.2c0,54.9,41.9,93.2,84,93.2c21.2,0,48.4-7.3,71.3-39.7l-35.5-20.5
	c-27.5,40.5-73.3,20-78.6-20.6h115.9C927.5,96.2,886.3,54.3,840.5,54.3 M875.6,124.6h-72.5C811.6,83.1,867.8,80.7,875.6,124.6"/>
</svg>
